<svg width="108" height="124" viewBox="0 0 108 124" fill="none" xmlns="http://www.w3.org/2000/svg">
<path d="M51 17C76.4989 17 97 37.2401 97 62C97 86.7599 76.4989 107 51 107C25.5011 107 5 86.7599 5 62C5 37.2401 25.5011 17 51 17Z" fill="#DFFFC6" stroke="#A3E69C" stroke-width="10"/>
<g filter="url(#filter0_d_2205_21)">
<path d="M38.709 41.02L65.351 25.62C67.0963 24.5933 68.6363 24.465 69.971 25.235C71.357 26.005 72.05 27.4167 72.05 29.47V78.75L65.351 82.6V33.32L55.341 39.095V88.375L48.642 92.225V42.945L38.709 48.72V98L32.01 101.85V52.57C32.01 51.184 32.318 49.7467 32.934 48.258C33.55 46.718 34.3713 45.3063 35.398 44.023C36.4247 42.6883 37.5283 41.6873 38.709 41.02ZM65.351 33.32V82.6L58.652 78.75V29.47L65.351 33.32ZM48.642 42.945V92.225L42.02 88.375V39.095L48.642 42.945ZM69.971 25.235C68.6363 24.465 67.0963 24.5933 65.351 25.62L38.709 41.02C37.5283 41.6873 36.4247 42.6883 35.398 44.023C34.3713 45.3063 33.55 46.718 32.934 48.258C32.318 49.7467 32.01 51.184 32.01 52.57V101.85L25.311 98V48.72C25.311 47.334 25.619 45.8967 26.235 44.408C26.851 42.868 27.6723 41.4563 28.699 40.173C29.7257 38.8383 30.8293 37.8373 32.01 37.17L58.652 21.77C60.4487 20.7433 62.0143 20.615 63.349 21.385L69.971 25.235Z" fill="white"/>
</g>
<path d="M107.049 91.0396L85.0774 105.416L84.4716 77.6346L107.049 91.0396Z" fill="#79BD52"/>
<defs>
<filter id="filter0_d_2205_21" x="4.31104" y="0.22998" width="88.739" height="123.62" filterUnits="userSpaceOnUse" color-interpolation-filters="sRGB">
<feFlood flood-opacity="0" result="BackgroundImageFix"/>
<feColorMatrix in="SourceAlpha" type="matrix" values="0 0 0 0 0 0 0 0 0 0 0 0 0 0 0 0 0 0 127 0" result="hardAlpha"/>
<feMorphology radius="20" operator="dilate" in="SourceAlpha" result="effect1_dropShadow_2205_21"/>
<feOffset dy="1"/>
<feGaussianBlur stdDeviation="0.5"/>
<feComposite in2="hardAlpha" operator="out"/>
<feColorMatrix type="matrix" values="0 0 0 0 0 0 0 0 0 0 0 0 0 0 0 0 0 0 0.25 0"/>
<feBlend mode="normal" in2="BackgroundImageFix" result="effect1_dropShadow_2205_21"/>
<feBlend mode="normal" in="SourceGraphic" in2="effect1_dropShadow_2205_21" result="shape"/>
</filter>
</defs>
</svg>
