<svg width="109" height="109" viewBox="0 0 109 109" fill="none" xmlns="http://www.w3.org/2000/svg">
<circle cx="55" cy="60" r="44" fill="#DFFFC6" stroke="#A3E69C" stroke-width="10"/>
<path d="M108.851 88.4588L87.741 102.548L87.159 75.3219L108.851 88.4588Z" fill="#93E066"/>
<path d="M69.9333 50.4667L55.5333 83.9333H46.7333C46.5556 82.5111 45.9778 78.9111 45 73.1333C44.0222 67.2667 43.3556 63.2222 43 61C42.2889 55.4889 41.8 51.9778 41.5333 50.4667L33.6667 89H21.2667L35.4 28.4667H47.9333C48.0222 29.3556 48.2444 30.7778 48.6 32.7333C48.9556 34.6 49.3111 36.7333 49.6667 39.1333C50.1111 41.4444 50.5556 43.9778 51 46.7333C51.4444 49.4889 51.8444 52.1556 52.2 54.7333C52.5556 57.2222 52.8667 59.5333 53.1333 61.6667C53.4 63.8 53.6222 65.4889 53.8 66.7333C54.1556 65.5778 54.7778 63.9333 55.6667 61.8C56.6444 59.6667 57.6667 57.3111 58.7333 54.7333C59.8 52.1556 60.9556 49.5333 62.2 46.8667C63.4444 44.1111 64.6 41.5333 65.6667 39.1333C66.8222 36.7333 67.8 34.6 68.6 32.7333C69.4889 30.7778 70.1556 29.3556 70.6 28.4667H83.1333L80.2 89H67.2667C67.3556 88.0222 67.4444 86.5556 67.5333 84.6C67.6222 82.6444 67.7556 80.4667 67.9333 78.0667C68.2 75.5778 68.3778 73 68.4667 70.3333C68.6444 67.6667 68.8222 65.0889 69 62.6C69.1778 60.1111 69.3556 57.8 69.5333 55.6667C69.7111 53.4444 69.8444 51.7111 69.9333 50.4667Z" fill="#7FCD7D"/>
</svg>
